<?xml version="1.0" encoding="UTF-8"?>
<svg id="Layer_2" data-name="Layer 2" xmlns="http://www.w3.org/2000/svg" xmlns:xlink="http://www.w3.org/1999/xlink" viewBox="0 0 3316.68 1398.72">
  <defs>
    <style>
      .cls-1 {
        fill: url(#linear-gradient);
      }

      .cls-1, .cls-2, .cls-3, .cls-4, .cls-5, .cls-6, .cls-7, .cls-8, .cls-9, .cls-10, .cls-11, .cls-12 {
        stroke-width: 0px;
      }

      .cls-2 {
        fill: #c1272d;
      }

      .cls-4 {
        fill: #bdccd4;
      }

      .cls-5 {
        fill: #141414;
      }

      .cls-6 {
        fill: url(#New_Gradient_Swatch_2);
      }

      .cls-7 {
        fill: #ff7bac;
      }

      .cls-8 {
        fill: #fff;
      }

      .cls-9 {
        fill: url(#linear-gradient-2);
      }

      .cls-10 {
        fill: #0c2442;
      }

      .cls-11 {
        fill: #d4145a;
      }

      .cls-12 {
        fill: #131313;
      }
    </style>
    <linearGradient id="New_Gradient_Swatch_2" data-name="New Gradient Swatch 2" x1="1477.85" y1="752.75" x2="1708.27" y2="50.87" gradientUnits="userSpaceOnUse">
      <stop offset="0" stop-color="#ff7bac"/>
      <stop offset=".44" stop-color="#ffaf5a"/>
      <stop offset=".82" stop-color="#ffd919"/>
      <stop offset="1" stop-color="#ffea00"/>
    </linearGradient>
    <linearGradient id="linear-gradient" x1="1063.24" y1="154.11" x2="1342.21" y2="262.14" gradientUnits="userSpaceOnUse">
      <stop offset=".59" stop-color="#fff"/>
      <stop offset=".92" stop-color="#b4b4b4"/>
    </linearGradient>
    <linearGradient id="linear-gradient-2" x1="10.62" y1="1738.23" x2="-428.75" y2="1789.87" gradientTransform="translate(1791.06 -1552.29) rotate(-16.88)" gradientUnits="userSpaceOnUse">
      <stop offset=".47" stop-color="#fff"/>
      <stop offset="1" stop-color="#999"/>
    </linearGradient>
  </defs>
  <g id="Layer_1-2" data-name="Layer 1">
    <g>
      <path class="cls-10" d="m766.7,859.53c-19.82,0-32.04,9.25-32.04,24.11,0,39.63,113.28,17.17,113.28,99.08,0,34.02-27.41,60.77-82.9,60.77-45.25,0-75.63-19.82-87.85-30.38l27.41-33.69c10.24,9.25,33.36,26.09,61.76,26.09,23.45,0,35.01-8.26,35.01-21.8,0-43.6-113.61-20.48-113.61-97.43,0-36.66,31.05-65.39,77.94-65.39,58.13,0,75.96,33.69,80.91,57.14l-41.94,10.24c-.99-11.56-12.55-28.73-37.98-28.73Z"/>
      <path class="cls-10" d="m949.67,861.84h-66.38v-38.64h179.66v38.64h-66.38v179.33h-46.9v-179.33Z"/>
      <path class="cls-10" d="m1213.88,994.61h-78.93l-15.19,46.57h-47.89l77.28-217.97h50.53l76.95,217.97h-47.56l-15.19-46.57Zm-11.23-35.34l-21.14-64.73c-2.31-6.94-4.95-16.51-6.61-24.77h-.99c-1.32,8.26-4.29,17.83-6.6,25.1l-20.81,64.4h56.14Z"/>
      <path class="cls-10" d="m1491.96,1041.17s-8.59,2.31-24.11,2.31c-66.38,0-48.22-76.95-97.43-76.95h-9.91v74.64h-46.9v-217.97h73.98c56.81,0,87.19,22.46,87.19,73.65,0,30.38-16.18,50.86-43.93,61.43,23.45,10.9,24.11,47.56,51.52,47.56,3.63,0,6.6-.66,6.6-.66l2.97,36Zm-110.64-107.67c28.07,0,47.23-12.88,47.23-36.33s-15.85-36.99-43.59-36.99h-24.44v73.32h20.81Z"/>
      <path class="cls-10" d="m1721.16,823.2v217.97h-46.9v-91.48h-94.46v91.48h-46.9v-217.97h46.9v87.85h94.46v-87.85h46.9Z"/>
      <path class="cls-10" d="m1902.48,994.61h-78.93l-15.19,46.57h-47.89l77.28-217.97h50.53l76.95,217.97h-47.56l-15.19-46.57Zm-11.23-35.34l-21.14-64.73c-2.31-6.94-4.95-16.51-6.61-24.77h-.99c-1.32,8.26-4.29,17.83-6.6,25.1l-20.81,64.4h56.14Z"/>
      <path class="cls-10" d="m2182.87,1041.17h-44.59l-70.35-105.02c-8.59-13.21-19.82-32.03-25.1-40.62l-1.98.99c1.32,4.95,1.65,21.8,1.65,39.3l.33,105.35h-45.25v-217.97h41.61l73.65,110.31c11.23,16.84,21.14,34.68,24.77,41.28l1.98-.99c-.99-5.94-1.98-22.46-1.98-40.62l-.33-109.98h45.58v217.97Z"/>
      <path class="cls-10" d="m2414.72,931.86c0,71.67-36.66,109.32-99.41,109.32h-86.2v-217.97h75.96c71.01,0,109.65,42.93,109.65,108.66Zm-47.56,0c0-48.22-24.44-71.34-67.7-71.34h-23.45v143.33h33.69c35.01,0,57.46-20.48,57.46-72Z"/>
      <path class="cls-10" d="m2522.39,859.53c-19.82,0-32.04,9.25-32.04,24.11,0,39.63,113.28,17.17,113.28,99.08,0,34.02-27.41,60.77-82.9,60.77-45.25,0-75.63-19.82-87.85-30.38l27.41-33.69c10.24,9.25,33.36,26.09,61.76,26.09,23.45,0,35.01-8.26,35.01-21.8,0-43.6-113.61-20.48-113.61-97.43,0-36.66,31.04-65.39,77.94-65.39,58.13,0,75.96,33.69,80.91,57.14l-41.94,10.24c-.99-11.56-12.55-28.73-37.98-28.73Z"/>
    </g>
    <g>
      <path class="cls-10" d="m742.68,1218.54c0,24.85-12.06,37.91-32.71,37.91h-28.37v-75.58h25c23.37,0,36.08,14.89,36.08,37.68Zm-15.65,0c0-16.72-8.04-24.74-22.28-24.74h-7.72v49.7h11.08c11.52,0,18.91-7.1,18.91-24.96Z"/>
      <path class="cls-10" d="m769.84,1194.26v17.41h27.82v12.71h-27.82v18.67h32.06v13.4h-47.49v-75.58h47.49v13.4h-32.06Z"/>
      <path class="cls-10" d="m838.42,1193.46c-6.52,0-10.54,3.21-10.54,8.36,0,13.74,37.28,5.96,37.28,34.36,0,11.79-9.02,21.07-27.28,21.07-14.89,0-24.89-6.87-28.91-10.54l9.02-11.68c3.37,3.21,10.98,9.05,20.32,9.05,7.72,0,11.52-2.86,11.52-7.56,0-15.12-37.39-7.1-37.39-33.78,0-12.71,10.22-22.67,25.65-22.67,19.13,0,25,11.68,26.63,19.81l-13.8,3.55c-.33-4.01-4.13-9.96-12.5-9.96Z"/>
      <path class="cls-10" d="m937.86,1218.54c0,24.85-12.06,37.91-32.71,37.91h-28.37v-75.58h25c23.37,0,36.08,14.89,36.08,37.68Zm-15.65,0c0-16.72-8.04-24.74-22.28-24.74h-7.72v49.7h11.08c11.52,0,18.91-7.1,18.91-24.96Z"/>
      <path class="cls-10" d="m965.03,1194.26v17.41h27.82v12.71h-27.82v18.67h32.06v13.4h-47.49v-75.58h47.49v13.4h-32.06Z"/>
      <path class="cls-10" d="m2403.39,1243.39h24.24v13.05h-53.14v-10.88c16.95-13.51,36.08-24.62,36.08-39.74,0-6.99-4.13-11.68-10.98-11.68-6.19,0-10.32,3.66-10.32,9.28,0,1.03.11,2.06.33,2.63l-14.78,2.86c-.33-.92-.87-2.75-.87-6.18,0-13.4,10.32-22.67,26.08-22.67s26.19,10.19,26.19,25.31-12.06,26.45-23.58,34.7c-1.41,1.15-4.24,2.75-5,3.09l.22.46c.65-.11,2.83-.23,5.54-.23Z"/>
      <path class="cls-10" d="m2436.31,1219.11c0-24.05,10.87-39.05,30.65-39.05s30.97,15,30.97,39.05-10.98,38.13-30.97,38.13-30.65-14.31-30.65-38.13Zm46.3,0c0-16.03-5.98-24.96-15.65-24.96s-15.32,8.93-15.32,24.96,5.76,24.05,15.32,24.05,15.65-8.25,15.65-24.05Z"/>
      <path class="cls-10" d="m2522.6,1197.35l-18.26,5.04v-14.66l30.87-6.87h2.39v75.58h-15v-59.09Z"/>
      <path class="cls-10" d="m2601.5,1202.51c0,9.28-6.41,15.92-14.24,15.92v.23c7.93,0,16.74,6.76,16.74,17.52,0,12.25-10.32,21.07-27.82,21.07-22.39,0-28.37-15.23-28.37-15.23l11.41-7.9s5.65,9.16,16.41,9.16c7.93,0,12.72-3.55,12.72-9.16.11-5.27-3.8-8.7-12.61-9.05l-7.5-.11v-11.68l5.11-.11c7.83-.34,12.61-3.44,12.61-8.93,0-5.96-4.24-10.08-10.54-10.08s-9.78,3.32-9.78,7.56c0,1.03.11,1.95.33,2.52l-14.89,2.52c0-.23-.65-2.75-.65-6.07,0-12.02,10.11-20.61,25.43-20.61s25.65,9.16,25.65,22.45Z"/>
    </g>
    <g>
      <path class="cls-10" d="m1290.9,1140.41c-9.45,0-15.28,4.41-15.28,11.5,0,18.9,54.02,8.19,54.02,47.24,0,16.22-13.07,28.98-39.53,28.98-21.58,0-36.06-9.45-41.89-14.49l13.07-16.06c4.88,4.41,15.91,12.44,29.45,12.44,11.18,0,16.69-3.94,16.69-10.39,0-20.79-54.17-9.76-54.17-46.46,0-17.48,14.8-31.18,37.16-31.18,27.72,0,36.22,16.06,38.58,27.24l-20,4.88c-.47-5.51-5.98-13.7-18.11-13.7Z"/>
      <path class="cls-10" d="m1452.77,1174.9c0,32.76-20.79,53.23-50.55,53.23s-50.71-20.47-50.71-53.23,20.95-52.91,50.71-52.91,50.55,20.47,50.55,52.91Zm-22.68,0c0-21.1-11.65-33.54-27.87-33.54s-28.03,12.44-28.03,33.54,11.81,33.7,28.03,33.7,27.87-12.44,27.87-33.7Z"/>
      <path class="cls-10" d="m1549.14,1208.6v18.43h-69.29v-103.94h22.36v85.51h46.93Z"/>
      <path class="cls-10" d="m1654.18,1123.09v62.99c0,25.67-17.48,42.05-43.31,42.05s-43.62-16.38-43.62-42.05v-62.99h22.36v62.83c0,14.49,8.66,22.83,21.26,22.83s20.94-8.35,20.94-22.68v-62.99h22.36Z"/>
      <path class="cls-10" d="m1736.06,1227.97l-1.42,3.15c5.83.79,12.29,4.72,12.29,13.54,0,9.76-8.5,14.65-17.8,14.65-10.55,0-16.54-6.61-16.54-6.61l5.35-9.29s4.25,4.57,10.71,4.57c3.94,0,6.14-1.57,6.14-4.41,0-3.15-3.15-6.14-13.86-6.14l4.25-9.61c-27.09-2.83-44.88-22.36-44.88-52.76,0-32.44,20.47-53.07,48.98-53.07,31.18,0,42.36,22.05,42.36,38.74l-20.63,3.15c0-9.61-5.83-22.52-21.42-22.52s-26.77,12.6-26.77,33.7c0,23.94,14.33,33.7,29.76,33.7,13.38,0,22.36-8.82,26.61-14.8l13.23,13.86c-4.25,6.14-15.75,18.74-36.38,20.16Z"/>
      <path class="cls-10" d="m1893.84,1174.9c0,32.76-20.79,53.23-50.55,53.23s-50.71-20.47-50.71-53.23,20.95-52.91,50.71-52.91,50.55,20.47,50.55,52.91Zm-22.99-72.91c0,8.98-5.98,16.22-16.54,16.22-9.76,0-16.85-8.35-22.36-8.35-2.99,0-5.2,2.05-5.2,5.2,0,1.89.79,3.78.79,3.78h-14.33s-.79-2.83-.79-6.93c0-9.61,6.77-15.75,16.85-15.75,11.81,0,18.43,8.03,23.31,8.03,2.36,0,4.09-1.57,4.09-4.72s-.79-5.2-.79-5.2h14.17s.79,3.31.79,7.72Zm.32,72.91c0-21.1-11.65-33.54-27.87-33.54s-28.03,12.44-28.03,33.54,11.81,33.7,28.03,33.7,27.87-12.44,27.87-33.7Z"/>
      <path class="cls-10" d="m1943.28,1141.51v23.94h40.31v17.48h-40.31v25.67h46.46v18.43h-68.82v-103.94h68.82v18.42h-46.46Z"/>
      <path class="cls-10" d="m2052.87,1140.41c-9.45,0-15.28,4.41-15.28,11.5,0,18.9,54.02,8.19,54.02,47.24,0,16.22-13.07,28.98-39.53,28.98-21.58,0-36.06-9.45-41.89-14.49l13.07-16.06c4.88,4.41,15.91,12.44,29.45,12.44,11.18,0,16.69-3.94,16.69-10.39,0-20.79-54.17-9.76-54.17-46.46,0-17.48,14.8-31.18,37.17-31.18,27.72,0,36.22,16.06,38.58,27.24l-20,4.88c-.47-5.51-5.98-13.7-18.11-13.7Z"/>
      <path class="cls-10" d="m1251.22,1375.41h-37.64l-7.24,22.2h-22.84l36.85-103.94h24.09l36.69,103.94h-22.68l-7.24-22.2Zm-5.35-16.85l-10.08-30.87c-1.1-3.31-2.36-7.87-3.15-11.81h-.47c-.63,3.94-2.05,8.5-3.15,11.97l-9.92,30.71h26.77Z"/>
      <path class="cls-10" d="m1415.61,1397.61h-22.05l.16-54.8c0-4.72.47-11.5.63-12.44l-.63-.16c-.31,1.26-2.05,7.09-3.31,9.76l-25.04,58.27h-11.97l-25.67-58.9c-1.58-3.78-2.84-8.35-2.99-9.13l-.79.16c.32.95.79,7.87.79,12.44l.16,54.8h-21.89v-103.94h23.78l25.36,55.12c2.99,6.61,6.61,15.91,7.24,18.27h.63c.47-2.36,4.25-11.65,7.24-18.43l25.04-54.96h23.31v103.94Z"/>
      <path class="cls-10" d="m1528.52,1369.43c0,18.11-12.91,28.19-35.75,28.19h-44.88v-103.94h41.1c22.21,0,35.43,10.39,35.43,28.19,0,15.75-11.02,20.31-17.01,21.26v.47c7.09,1.1,21.1,8.19,21.1,25.83Zm-44.25-58.9h-14.49v26.3h15.75c10.55,0,16.38-5.04,16.38-12.91,0-8.5-5.83-13.39-17.64-13.39Zm21.73,56.38c0-9.61-7.87-14.49-18.43-14.49h-17.8v28.35h19.06c10.08,0,17.17-4.41,17.17-13.86Z"/>
      <path class="cls-10" d="m1555.43,1293.68h21.89v103.94h-21.89v-103.94Z"/>
      <path class="cls-10" d="m1631.97,1312.1v23.94h40.31v17.48h-40.31v25.67h46.46v18.43h-68.82v-103.94h68.82v18.42h-46.46Z"/>
      <path class="cls-10" d="m1795.11,1397.61h-21.26l-33.54-50.08c-4.09-6.3-9.45-15.28-11.97-19.37l-.94.47c.63,2.36.79,10.39.79,18.74l.16,50.24h-21.58v-103.94h19.84l35.12,52.6c5.35,8.03,10.08,16.54,11.81,19.69l.94-.47c-.47-2.83-.94-10.71-.94-19.37l-.16-52.44h21.73v103.94Z"/>
      <path class="cls-10" d="m1849.74,1312.1h-31.65v-18.42h85.67v18.42h-31.65v85.51h-22.36v-85.51Z"/>
      <path class="cls-10" d="m1974.14,1375.41h-37.64l-7.24,22.2h-22.84l36.85-103.94h24.09l36.69,103.94h-22.68l-7.24-22.2Zm-5.35-16.85l-10.08-30.87c-1.1-3.31-2.36-7.87-3.15-11.81h-.47c-.63,3.94-2.05,8.5-3.15,11.97l-9.92,30.71h26.77Z"/>
      <path class="cls-10" d="m2025.94,1293.68h21.89v103.94h-21.89v-103.94Z"/>
      <path class="cls-10" d="m2114.91,1311c-9.45,0-15.28,4.41-15.28,11.5,0,18.9,54.02,8.19,54.02,47.24,0,16.22-13.07,28.98-39.53,28.98-21.58,0-36.06-9.45-41.89-14.49l13.07-16.06c4.88,4.41,15.91,12.44,29.45,12.44,11.18,0,16.69-3.94,16.69-10.39,0-20.79-54.17-9.76-54.17-46.46,0-17.48,14.8-31.18,37.16-31.18,27.72,0,36.22,16.06,38.58,27.24l-20,4.88c-.47-5.51-5.98-13.7-18.11-13.7Z"/>
    </g>
    <g id="Layer_1-2" data-name="Layer 1-2">
      <path class="cls-10" d="m209.71,933.7h0c39.28,0,71.15,31.74,71.35,70.98h0c.21-39.23,32.07-70.97,71.35-70.98h0c-39.41,0-71.36-31.95-71.36-71.36,0,39.41-31.95,71.36-71.36,71.36h.01Z"/>
    </g>
    <g id="Layer_1-2-2" data-name="Layer 1-2">
      <path class="cls-10" d="m3173.97,1047.46h0c39.28,0,71.15,31.74,71.35,70.98h0c.21-39.23,32.07-70.97,71.35-70.98h0c-39.41,0-71.36-31.95-71.36-71.36,0,39.41-31.95,71.36-71.36,71.36h.01Z"/>
    </g>
    <path class="cls-10" d="m2878.82,932.3h0c23.96,0,43.4,19.37,43.53,43.3h0c.13-23.93,19.56-43.3,43.53-43.3h0c-24.04,0-43.53-19.49-43.53-43.53,0,24.04-19.49,43.53-43.53,43.53h0Z"/>
    <path class="cls-10" d="m0,1079.45H0c23.96,0,43.4,19.37,43.53,43.3h0c.13-23.93,19.56-43.3,43.53-43.3h0c-24.04,0-43.53-19.49-43.53-43.53,0,24.04-19.49,43.53-43.53,43.53h0Z"/>
    <g>
      <g>
        <path class="cls-4" d="m1675.71,78.73l56.88,115.25c8.41,17.03,24.65,28.84,43.45,31.57l127.18,18.48c47.33,6.88,66.23,65.05,31.98,98.43l-92.03,89.71c-13.6,13.26-19.81,32.36-16.6,51.08l21.73,126.67c8.09,47.14-41.4,83.09-83.73,60.84l-113.76-59.8c-16.81-8.84-36.9-8.84-53.71,0l-113.76,59.8c-42.34,22.26-91.82-13.69-83.73-60.84l21.73-126.67c3.21-18.72-3-37.82-16.6-51.08l-92.03-89.71c-34.25-33.39-15.35-91.56,31.98-98.43l127.18-18.48c18.8-2.73,35.05-14.54,43.45-31.57l56.88-115.25c21.17-42.89,82.33-42.89,103.5,0Z"/>
        <path class="cls-3" d="m1623.96,46.56c20.58,0,41.17,10.72,51.75,32.17l56.88,115.25c8.41,17.03,24.65,28.84,43.45,31.57l127.18,18.48c47.33,6.88,66.23,65.05,31.98,98.43l-92.03,89.71c-13.6,13.26-19.81,32.36-16.6,51.08l21.73,126.67c6.4,37.3-23.24,67.59-56.87,67.59-8.87,0-18.03-2.11-26.87-6.76l-113.76-59.81c-8.41-4.42-17.63-6.63-26.85-6.63s-18.45,2.21-26.85,6.63l-113.76,59.81c-8.84,4.65-17.99,6.76-26.87,6.76-33.63,0-63.27-30.29-56.87-67.59l21.73-126.67c3.21-18.72-3-37.82-16.6-51.08l-92.03-89.71c-34.25-33.39-15.35-91.56,31.98-98.43l127.18-18.48c18.8-2.73,35.05-14.54,43.45-31.57l56.88-115.25c10.58-21.45,31.17-32.17,51.75-32.17m0-6.57c-24.65,0-46.73,13.73-57.64,35.83l-56.88,115.25c-7.45,15.1-21.85,25.56-38.51,27.98l-127.18,18.48c-24.39,3.54-44.27,20.31-51.89,43.75-7.62,23.44-1.38,48.69,16.26,65.89l92.03,89.71c12.06,11.75,17.55,28.67,14.71,45.27l-21.73,126.67c-3.26,19.03,1.7,37.53,13.99,52.1,12.42,14.73,30.4,23.17,49.35,23.17,10.37,0,20.44-2.53,29.92-7.51l113.76-59.81c7.31-3.84,15.54-5.87,23.8-5.87s16.49,2.03,23.8,5.87l113.76,59.81c9.48,4.98,19.55,7.51,29.92,7.51,18.95,0,36.94-8.45,49.35-23.17,12.28-14.57,17.25-33.07,13.99-52.1l-21.73-126.67c-2.85-16.59,2.65-33.52,14.71-45.27l92.03-89.71c17.65-17.2,23.88-42.45,16.26-65.89-7.62-23.44-27.5-40.2-51.89-43.75l-127.18-18.48c-16.66-2.42-31.06-12.88-38.51-27.98l-56.88-115.25c-10.91-22.1-32.99-35.83-57.64-35.83h0Z"/>
      </g>
      <g>
        <path class="cls-6" d="m1461.35,710.78c-22.26,5.53-43.99,7.17-59.1-2.34-39.98-25.16-29.54-133.6,8.86-243.28-67.96-43.2-108.05-91.9-131-126.07-26.63-39.66-25.11-52.22-24.19-56.75,12.48-61.59,203.89-67.95,248.36-68.97,37.88-97.41,90.37-209.6,134.36-203.26,11.82,1.7,19.76,11.5,35.46,35.46,25.69,39.21,59.09,96.37,90.62,172.37,128.9,4.81,223.33,30.61,228.77,68.86,2.11,14.79-6.24,35.31-17.27,47.99-16.99,19.53-37.44,40.67-61.75,61.98-30.26,26.52-59.66,47.3-85.73,63.47,57.85,111.85,73.8,202.55,38.81,231.17-16.9,13.83-42.15,10.27-72.37,6.01-78.47-11.05-134.73-52.82-165.4-80.57-32.24,29.33-91.6,74.86-168.43,93.94Z"/>
        <path class="cls-12" d="m1458.74,701.28c-11.15,2.73-22.28,4.71-33.8,3.97-2.62-.17-3.23-.21-5.95-.78-2.51-.53-5.02-1.21-7.4-2.17.9.36-1.28-.62-1.58-.77-1.04-.54-2.06-1.12-3.04-1.75-.59-.38-1.14-.79-1.72-1.18-1.31-.88,1.49,1.33-.12-.13-.98-.89-1.96-1.76-2.87-2.72-.5-.52-.98-1.06-1.45-1.61-.74-.86-1.28-1.76-.24-.22-1.75-2.59-3.46-5.11-4.88-7.91-.32-.62-.61-1.26-.92-1.89-.2-.43-.37-.87-.59-1.3.02.05.67,1.74.29.69-.6-1.63-1.26-3.24-1.81-4.89-1.14-3.4-2.07-6.87-2.83-10.38-.42-1.94-.8-3.89-1.13-5.85-.15-.87-.28-1.73-.42-2.6-.07-.44-.13-.88-.19-1.32-.16-1.15.15,1.4-.06-.52-.45-4.25-.85-8.49-1.06-12.75-.48-9.64-.29-19.3.3-28.93,1.37-22.16,4.82-43.24,9.56-65.13,6.13-28.26,14.25-56.07,23.78-83.36,1.47-4.2-1.01-8.88-4.53-11.12-41.85-26.68-79.44-59.78-110.23-98.77-.73-.92-1.45-1.85-2.17-2.78-.94-1.21.87,1.14-.05-.07-.26-.34-.52-.68-.78-1.02-1.52-2-3.02-4.01-4.5-6.03-2.47-3.37-4.89-6.78-7.25-10.22-6.69-9.73-13.09-19.73-18.47-30.25-1.02-1.99-2-4-2.92-6.04-.21-.46-.4-.93-.61-1.38-.61-1.27.66,1.64.15.38-.37-.92-.74-1.83-1.09-2.76-.97-2.61-1.82-5.27-2.41-7.99-.11-.53-.19-1.06-.31-1.59-.46-2.13.14,2.26.1.83-.03-.85-.16-1.7-.16-2.55,0-.64.06-1.27.07-1.91.04-2.22-.66,2.98-.12.89.37-1.42.61-5.21,1.81-6.15-.2.16-1.07,2.24-.45,1.08.15-.27.25-.56.39-.84.29-.55.56-1.11.86-1.65.65-1.17,1.36-2.31,2.13-3.41.24-.35,1.77-2.09.52-.75-1.19,1.27.16-.17.46-.53.98-1.16,2.01-2.26,3.09-3.33.93-.92,1.9-1.81,2.89-2.66.54-.47,1.1-.92,1.65-1.38,1.55-1.31-1.66,1.18.4-.31,5.29-3.83,10.93-7.1,16.82-9.93,1.58-.76,3.16-1.48,4.77-2.19,1.06-.46,2.17-.89.42-.19,1.06-.42,2.1-.87,3.16-1.28,3.51-1.38,7.06-2.66,10.63-3.86,16.1-5.39,32.72-9.17,49.4-12.24,8.73-1.6,17.5-2.99,26.29-4.21.64-.09,3.78-.51,1.44-.2,1.08-.14,2.16-.29,3.24-.42,2.15-.28,4.31-.54,6.46-.8,4.39-.53,8.79-1.02,13.19-1.48,27.74-2.89,55.61-4.54,83.49-5.29,1.96-.05,3.92-.1,5.87-.15,4.72-.11,7.87-3.06,9.5-7.23,13.83-35.53,28.56-70.78,45.75-104.83,7.78-15.41,16.06-30.59,25.39-45.12,4.05-6.31,8.3-12.53,12.89-18.46-1.06,1.37.16-.19.42-.52.47-.58.93-1.17,1.4-1.74,1.1-1.35,2.22-2.69,3.36-4.01,2.15-2.48,4.38-4.9,6.71-7.21,1.96-1.95,4-3.84,6.12-5.61.37-.31.75-.6,1.11-.91,1.82-1.59-1.72,1.19.22-.18,1.28-.9,2.54-1.83,3.86-2.68,1.95-1.24,3.98-2.23,6.02-3.3.6-.32,1.58-.4-.72.29.55-.17,1.08-.42,1.63-.61,1.15-.4,2.32-.74,3.5-1.01.44-.1.9-.16,1.34-.28,1.94-.53-2.47.13-.48.05.89-.04,1.77-.14,2.65-.14.49,0,2.86-.2,3.16.19-.23-.3-2.47-.58-.32.04.57.16,1.15.28,1.72.45.57.17,1.12.4,1.68.59-2.63-.87-.79-.36-.16.01.9.54,1.8,1.06,2.69,1.62.5.31,2.07,1.75.15.06.53.47,1.09.91,1.61,1.39,1.15,1.04,2.24,2.14,3.28,3.28,1.19,1.29,2.32,2.62,3.42,3.98-.16-.19,1.76,2.24,1.02,1.28-.78-1.01,1.28,1.72,1.08,1.45,2.85,3.86,5.54,7.82,8.2,11.81,4.09,6.14,8.09,12.34,12.03,18.59,8.16,12.93,16.02,26.06,23.57,39.35,21.41,37.68,40.47,76.74,57.11,116.76,1.76,4.22,4.73,7.05,9.5,7.23,37.91,1.44,75.58,4.52,112.41,11.07,15.07,2.68,30.06,5.94,44.77,10.21,6.18,1.79,12.31,3.76,18.35,5.99,2.77,1.02,5.51,2.1,8.23,3.23-2.3-.96,1.6.72,2.2.99,1.45.66,2.89,1.33,4.32,2.03,4.41,2.16,8.73,4.55,12.83,7.26.93.62,1.85,1.25,2.76,1.9.4.29.79.59,1.19.88,1.72,1.23-1.74-1.48-.16-.12,1.66,1.43,3.34,2.81,4.89,4.36.49.49,2.84,3.78,3.38,3.76-.6.02-1.47-2.1-.37-.46.26.39.55.77.81,1.16.51.76.99,1.55,1.43,2.35.36.65.63,1.36,1.01,1.99.89,1.5-.79-2.41-.31-.74.12.41.31.81.44,1.22.23.68.43,1.36.6,2.05.27,1.08.36,3.07.25.81.4,8.36-.61,14-3.88,22.3-1.05,2.66-3.2,6.85-5.09,9.99-2.22,3.68-3.88,5.9-6.3,8.69-12.65,14.54-26.01,28.48-39.93,41.81-32.01,30.66-67.14,57.83-104.79,81.21-4.69,2.91-6.03,8.63-3.53,13.48,18.83,36.49,35.54,74.42,46.41,114.1,2.18,7.98,4.12,16.03,5.69,24.15.73,3.75,1.38,7.51,1.94,11.29.14.91.27,1.82.39,2.74-.25-1.85-.04-.27,0,.08.23,2.05.48,4.11.67,6.17.61,6.51.9,13.06.71,19.61-.09,2.96-.27,5.92-.58,8.87-.07.71-.16,1.41-.24,2.11.31-2.8.06-.41-.04.14-.23,1.33-.44,2.67-.71,3.99-.51,2.52-1.14,5.01-1.91,7.47-.37,1.17-.76,2.32-1.19,3.47-.21.56-.44,1.11-.66,1.67,1.11-2.88.1-.28-.19.32-.89,1.87-1.89,3.69-3.01,5.43-.59.92-1.25,1.8-1.87,2.7,1.88-2.71-.59.63-1.21,1.3-.66.71-1.35,1.4-2.06,2.06-.33.3-2.49,2.09-1.31,1.2-1.5,1.14-3.13,2.13-4.79,3.01-.83.44-1.67.86-2.54,1.23,1.69-.73-1.75.58-2.08.68-7.99,2.55-14.03,2.64-23.04,2.27-37.7-1.56-76.91-11.23-110.35-26.83-16.7-7.79-32.68-17.1-47.8-27.63-3.47-2.42-6.89-4.89-10.27-7.43-.7-.52-1.39-1.05-2.09-1.58-.9-.69-.91-.7-.05-.03-.45-.35-.89-.7-1.34-1.04-1.42-1.11-2.83-2.23-4.23-3.36-5.37-4.34-10.62-8.84-15.74-13.46-4.09-3.7-9.82-3.73-13.93,0-6.99,6.35-14.17,12.5-21.54,18.41-4.89,3.93-6.86,5.45-12.07,9.32-4.58,3.39-9.23,6.7-13.93,9.92-21.5,14.69-44.82,27.83-68.51,37.8-15.56,6.55-31.65,11.86-48.02,15.96-5.16,1.29-8.27,7.07-6.88,12.12,1.44,5.24,6.94,8.18,12.12,6.88,54.07-13.55,103.69-40.68,147.33-74.96,8.74-6.86,17.22-14.04,25.44-21.51h-13.93c22.88,20.66,48.21,38.79,75.69,52.83,17.62,9,36.11,16.46,55.12,21.95,20.99,6.06,42.73,9.45,64.44,11.6,17.71,1.75,37.89,1.87,52.94-9.11,9.63-7.03,15.97-16.7,19.88-27.87,9.29-26.58,4.54-57.6-1.53-84.3-9.27-40.79-25.62-80.02-43.98-117.48-2.66-5.42-5.38-10.8-8.14-16.17-1.18,4.49-2.36,8.98-3.53,13.48,35.44-22.02,68.87-47.37,99.56-75.64,15.22-14.02,29.77-28.77,43.58-44.18,12.57-14.02,23.23-29.52,26.03-48.6,1.64-11.18.3-22.04-6.35-31.37-5.88-8.25-13.89-14.59-22.53-19.76-23.47-14.03-51.22-21.2-77.77-26.66-43.21-8.89-87.48-12.76-131.51-14.44,3.17,2.41,6.33,4.82,9.5,7.23-16.03-38.56-33.95-76.3-54.23-112.82-7.99-14.38-16.32-28.56-25.01-42.53-8.78-14.12-17.6-28.43-27.95-41.46-8.01-10.1-18.08-18.26-31.54-18.5-11.78-.21-22.39,5.67-31.37,12.75-10.92,8.61-19.74,19.69-27.8,30.92-9.87,13.76-18.44,28.44-26.43,43.36-21.31,39.8-38.74,81.68-55.1,123.71,3.17-2.41,6.33-4.82,9.5-7.23-26.69.61-53.37,2.02-79.95,4.51-36.04,3.38-72.56,8.17-107.31,18.65-26.03,7.85-58.94,20.37-69.2,48.19-3.44,9.33-2.05,18.93,1.36,28.08,7.41,19.9,19.69,37.95,32.17,54.98,29.34,40.05,65.31,74.56,105.9,103.1,6.2,4.36,12.51,8.56,18.9,12.64-1.51-3.71-3.02-7.42-4.53-11.12-16.96,48.58-30.24,99.43-33.86,150.92-1.37,19.43-1.19,39.23,2.72,58.38,2.92,14.32,8.62,29.41,19.59,39.55,19.91,18.4,49.72,14.81,73.9,8.89,5.17-1.27,8.26-7.09,6.88-12.12-1.45-5.26-6.93-8.15-12.12-6.88Z"/>
      </g>
      <path class="cls-8" d="m1654.02,109.78c3.57,4.49,6.88,9.18,9.91,14.05-.67-1.09-1.34-2.17-2.01-3.26,6.13,9.94,11.04,20.58,14.48,31.74-.37-1.21-.73-2.41-1.1-3.62.2.66.39,1.31.58,1.97,1.13,3.91,2.54,7.12,6,9.58,2.95,2.1,7.41,3.3,11.02,2.53,3.74-.79,7.45-2.69,9.58-6,1.98-3.07,3.6-7.34,2.53-11.02-2.85-9.82-6.32-19.33-11.07-28.41s-10.53-18.08-17.01-26.23c-4.8-6.05-14.89-7.4-20.79-2.13-6.04,5.38-7.28,14.31-2.13,20.79h0Z"/>
    </g>
    <path class="cls-1" d="m1222.7,103.44c6.98-10.21,3.8-18.68,6.75-30.74,4.05-16.53,16.42-26.71,19.5-29.24,2.53-2.08,21.06-16.83,45.74-12.75,3.98.66,28.73,5.22,32.24,19.5,2.07,8.4-5.12,12.43-22.49,43.49-10.49,18.76-12.49,25.56-11.25,32.99.84,4.98,4.06,10.32,10.5,20.99,7.98,13.22,11.74,15.51,14.25,24.74,2.04,7.52.4,9.15,3,14.25,4.46,8.76,11.95,9.15,17.25,14.25,15.37,14.81-1.97,55.65-5.25,62.98-4.81,10.76-11.68,26.11-28.49,37.49-16.94,11.46-33.65,11.92-39.74,12-7.52.1-13.06.1-17.25-3.75-6.73-6.18-2.46-15.36-9.75-23.99-5.13-6.08-12.44-7.69-15-8.25-6.88-1.51-14.25-.45-33.74,9.75-20.16,10.55-30.24,15.83-35.99,22.49-12.82,14.87-9.43,25.82-25.49,39.74-10.68,9.25-16.12,7.84-17.25,7.5-7.73-2.37-7.93-14.75-12.75-15-6.83-.34-8.27,24.43-21.74,28.49-7.75,2.34-15.62-3.33-17.25-4.5-15.1-10.87-13.52-35.33-12.75-47.24.54-8.39,2.17-33.59,20.24-51.74,10.38-10.42,15.03-7.32,23.99-18,11.71-13.96,6.05-22,16.5-40.49,8.2-14.51,13.03-11.92,30.74-33.74,17.86-22,11.74-23.13,22.49-32.24,14.09-11.94,26.42-11.52,52.49-29.24,3.89-2.65,7.41-5.24,10.5-9.75Z"/>
    <path class="cls-5" d="m1086.17,369.54c-14.91,16.18-35.78,12.37-42.33-8.57-8.23-26.29-5.53-52.74,3.49-78.4,5.15-14.64,13.2-28.34,27.86-34.84,10.97-4.87,16.07-12.32,18.25-23.13.38-1.9.96-3.76,1.55-5.61,6.08-19.1,15.26-36.56,30.72-49.53,7.16-6.01,12.68-12.71,17.93-20.25,15.44-22.17,35.9-36.79,63.68-38.8,4.82-.35,5.15-2.61,5.25-6.34.48-19.26,7.73-36.25,18.66-51.64,15.67-22.06,36.46-34.57,64.48-31.83,16.35,1.6,31.37,6.28,39.13,22.47,8.8,18.35,1.89,40.5-16.57,53.29-9.3,6.44-13.92,15.37-17.04,25.7-1.48,4.92-.35,8.06,3.78,11.31,11.89,9.34,18.89,21.64,19.61,36.94.19,4.01,1.57,5.52,5.29,6.95,9.8,3.76,16.53,10.76,19.74,21.04,4.22,13.52,2.39,26.97-.64,40.25-1.21,5.32-.22,8.98,3.4,12.68,8.92,9.11,17.82,18.25,26.41,27.67,6.49,7.12,15.09,12.74,18.66,22.04,6.7,17.43.28,31.99-11.56,44.81-17.22,18.64-36.87,19.19-54.83,1.62-10.11-9.89-21.13-18.86-30.37-29.64-1.62-1.89-3.21-2.76-5.68-1.13-6.7,4.43-14.6,5.16-22.19,6.47-22.46,3.87-37.76-6.86-40.76-29.37-.87-6.51-3.66-7.4-8.75-7.76-13.65-.97-24.74,4.56-36.47,11.14-21.61,12.12-37.86,28.5-48.56,50.53-9.31,19.17-26.14,23.19-42.42,9.71-3.22,4.08-6.2,8.39-9.72,12.21Zm80.17-220.12c17.88-2.72,35.03.02,52.02,4.98-14.22,2-28.36,3.97-41.96,8.48-32.89,10.92-54.91,33.34-68.37,64.82-6.45,15.09-11.11,30.71-14.49,46.75-.42,1.97.4,5.34-2.44,5.5-2.81.16-3.72-2.97-4.39-5.31-.98-3.42-1.58-6.95-2.51-11.17-9.66,6.04-15.53,14.6-19.46,24.46-8.09,20.31-10.45,41.27-5.44,62.73.91,3.88,1.83,8.84,6.82,9.55,5.47.78,8.64-3.57,11.06-7.51,9.77-15.9,21.21-30.47,33.96-44.05,9.49-10.11,19.57-17.21,35.07-17.34,13.48-.12,26.59-5.37,38.71-13.2,20.66-13.33,43.15-13.02,65.19-3.05,8.56,3.87,13.01,11.65,13,21.71-3.11-.3-4.09-2.98-6.11-4.16-2.07-1.21-4.24-3.74-6.55-1.84-1.81,1.49-.38,4.17.27,6.26,1.95,6.31,6.76,8.28,12.81,8.52,17.98.73,32.55-6.74,43.92-19.89,18.29-21.16,26.98-46.16,27.14-74.12.04-6.13-1.94-11.45-6.8-15.42-4.37-3.56-7.36-3.81-9.51,2.66-4.68,14.08-12.59,26.34-23.55,36.93,3.01-9.21,6.13-18.38,9.01-27.63,2.22-7.14,3.89-14.41,4.87-21.87,2.71-20.54-4.26-36.53-22.08-47.33-4.18-2.54-5.75-4.63-3.69-9.8,3.46-8.69,3.71-18.35,7.99-27,4.2-8.48,9.8-15.48,17.63-20.51,7.69-4.95,11.04-12.28,12.4-20.71,1.53-9.5-5.58-18.32-17.22-21.12-19.19-4.62-36.22-.96-50.27,13.8-13.69,14.38-21.65,31.27-23.47,51.07-.48,5.2.8,8.68,6.32,10.9,4.95,1.99,9.83,5.1,11.98,12.14-32.06-9.1-59.48-3.02-81.85,21.78Zm-33.5,162.38c-7.49,6.6-13.73,14.35-20.16,21.92-.52.62-1.07,1.37-1.22,2.13-.87,4.51-3.23,10.49,1.62,12.76,4.98,2.34,7.69-3.31,9.21-7.33,4.29-11.33,11.88-20.44,19.58-30.14-3.85-2.21-6.45-1.63-9.04.65Z"/>
    <path class="cls-9" d="m1948.3,224.53c4.84-9.21,14.11-7.28,27.61-20.91,6.1-6.16,9.81-12.21,12.3-16.27,8.36-13.63,5.41-15.81,11.42-24.36,9.71-13.81,25.98-20.3,32.73-22.99,7.97-3.18,8.81-2.14,11.67-4.59,9.09-7.77,3.95-21.08,5.9-42.54,1.23-13.53,3.24-35.61,18.34-46.31,12.36-8.75,27.72-5.79,31.92-4.98,22.29,4.3,32.65,22.94,33.64,24.79,1.35,2.52,9.63,18.03,4.46,33.65-2.69,8.14-7.59,11.94-5.94,14.86,2.75,4.85,19.4-.14,27.57-2.1,23.99-5.75,27.12,2.11,97.42,11.19,48.7,6.28,60.68,4.25,70.24,16.3,6.75,8.5,7.99,18.59,21.2,28.57,4.45,3.36,5.26,2.93,21.63,12.76,17.16,10.3,19.59,12.77,21.11,14.49,3.1,3.51,12.97,14.65,9.71,26.83-2.49,9.3-11.24,13.93-13.22,14.98-6.92,3.66-13.35,3.45-22.06,3.04-34.85-1.63-45.39-3.32-48.11,1.54-2.53,4.52,4.49,9.74,2.11,15.55-3.12,7.63-18.98,7.85-29.47,7.9-70.6.3-75.94-.19-86.89,2.86-16.25,4.53-14.31,8.35-41.6,17.85-16.2,5.64-27.08,9.5-42.53,11.34-25.44,3.02-48.43-1.12-55.6-2.46-16.43-3.07-17.53-5.45-25.34-4.33-18.52,2.66-23.35,17.62-38.58,17.45-9.1-.1-15.6-5.53-23.55-12.18-16.07-13.44-21.28-30.56-24.93-42.58-4.54-14.93-6.81-22.39-3.16-29.34Z"/>
    <path class="cls-12" d="m2146.52,102.45c42.47,1.71,84.2,4.49,125.48,11.6,21.61,3.72,42.93,8.79,62.18,20.07,10.61,6.21,19.5,13.92,22.21,26.57,1.03,4.8,4.84,5.69,8.24,7.26,11.66,5.38,22.64,11.79,31.86,20.84,13.54,13.29,16.77,26.24,10.32,40.42-5.81,12.76-25.06,23.11-40.49,21.04-9.67-1.3-19.33-1.09-29-1.53-3.11-.14-4.97.12-5.61,4.05-2.02,12.27-11.18,17.99-21.82,21.64-12.26,4.21-25.1,4.51-37.85,3.99-23.26-.96-46.47-1.83-69.7.68-11.2,1.21-21.14,4.52-30.94,10.66-28.59,17.92-60.22,22.8-93.42,18.35-11-1.48-21.87-3.74-32.04-8.37-2.69-1.22-4.31-1.05-6.49,1.13-17.89,17.83-31.82,20.63-54.51,10.5-4.64-2.07-7.66-1.76-12.03.85-15.32,9.14-28.9,20.53-42.67,31.67-16.38,13.25-39.15,12.01-52.36-3.18-13.7-15.75-11.92-38.52,4.45-52.62,15.75-13.57,32.06-26.46,50.1-36.91,3.89-2.25,4.98-4.59,4.7-9.13-1.62-26.58,12.04-45.97,37.65-53.67,4.86-1.46,7.53-3.65,9.81-8.59,10.4-22.48,24.95-41.38,49.47-49.9,5.51-1.91,5.12-5.88,5.35-9.88,1-17.18,2.55-34.28,6.78-51.03,1.78-7.02,4.34-13.74,7.76-20.14,8.42-15.76,21.72-22.6,39.34-19.65,15.06,2.52,29.11,8.31,40.37,18.46,16.38,14.76,21.22,33.24,12.86,54.83Zm-139.61,160.94c22.65,13.66,46.43,23.16,72.91,26.15,28.31,3.2,55.6,1.06,79.89-14.54,12.6-8.1,25.71-12.83,40.14-14.55,25.13-2.99,50.34-1.8,75.54-.77,10.84.44,21.61-.16,31.83-4.48,6.84-2.89,7.56-7.47,3.8-13.28-1.8-2.78-3.77-5.36-6.35-7.6-11.29-9.78-24.69-14.69-39.08-17.25-26.18-4.65-52.45-2.99-78.71-.66-3.65.32-6.81,1.89-9.99,3.79-5.85,3.5-12.15,5.71-20.06,4.05,2.06-2.53,3.38-4.27,4.82-5.9,18.15-20.49,33.74-42.54,42.55-68.82.99-2.97.28-8.11,3.75-8.36,3.71-.27,5.15,4.37,6.26,7.8.85,2.63,1.68,4.21,5.17,3.65,33.28-5.38,66.25-1.65,99.22,3.33,5.66.85,11.34,3.04,18.29,2.12-11.43-12.02-25.48-16.6-39.75-19.91-49.84-11.55-100.64-15.16-151.6-17.34-7.11-.31-12.7,1.07-17.64,6.71-4.7,5.37-10.85,8.88-19.13,7.43,4.34-6.54,8.44-12.42,12.22-18.5,3.83-6.15,6.57-12.83,8.8-19.72,5.5-16.98.37-30.76-15.12-39.6-4.79-2.73-9.89-5.1-15.11-6.83-15.08-4.98-26.11.02-32.55,14.5-5.03,11.32-6.14,23.48-7.34,35.63-1.05,10.72-.98,21.56-3.37,32.16-1.78,7.9-5.22,13.23-14.34,14.7-12.13,1.96-21.87,8.59-29.79,18.29-10,12.25-15.37,26.35-17.3,41.64-1,7.96-2.01,13.89-11.58,15.55-6.51,1.13-8.91,8.8-14.21,13.33-2.81-9.26,2.03-15.74,5.47-22.78-8.68,2.77-14.98,10.75-15.67,19.46-1.94,24.61,16.16,52.86,39.12,61.14,7.63,2.75,14.75,1.89,21.31-2.84,3.42-2.46,4.8-4.91.55-8.41-6.03-4.98-10.08-11.61-12.97-19.27Zm192.29-62.97c23.91-4.29,46.21-4.96,68.53-1.54,21.63,3.31,41.05,11.12,55.63,28.34,1.52,1.8,3.14,2.85,5.63,2.84,14.1-.08,28.15.43,42.23,1.61,8.23.69,15.26-3.73,18.65-11.5,3.12-7.14-1.16-12.49-6-17.56-6.65-6.95-14.76-11.63-23.16-15.85-14.51-7.29-30.54-9.6-46.09-13.38-31.46-7.64-63.3-10.28-95.55-5.93-2.7.36-4.71.66-5.54,3.75-2.65,9.96-7.48,18.95-14.33,29.22Z"/>
    <path class="cls-12" d="m1643.17,302.83c-2.62,0-5.22-1.11-7.03-3.28-3.25-3.88-2.74-9.66,1.13-12.91,7.85-6.58,24.48-17.63,47.66-17.66h.09c18.9,0,33.69,7.24,42.77,13.33,4.2,2.82,5.33,8.51,2.51,12.71-2.82,4.21-8.51,5.33-12.72,2.51-6.97-4.67-18.27-10.23-32.57-10.23h-.07c-17.39.02-29.96,8.39-35.9,13.37-1.72,1.44-3.81,2.14-5.88,2.14Z"/>
    <path class="cls-12" d="m1601.63,303.35c-2.11,0-4.23-.72-5.96-2.2-6.38-5.46-16.97-12.32-31.21-13.99-17.27-2.02-30.74,4.81-37.23,9.06-4.23,2.77-9.91,1.59-12.69-2.64-2.77-4.23-1.59-9.91,2.64-12.69,8.57-5.61,26.37-14.63,49.4-11.93,18.82,2.2,32.68,11.15,41,18.27,3.85,3.29,4.29,9.08,1,12.92-1.81,2.12-4.38,3.2-6.97,3.2Z"/>
    <path class="cls-12" d="m1773.35,332.25c-3.8,4.04-8.7,8.13-14.34,10.4-25.06,10.1-35.16,28.08-44.13,46.93-3.96,8.34-9.46,16.27-12.96,24.71-7.53,18.11-24.94,26.23-47.84,28.54-20.32,2.05-40.73,1.8-60.77-2.17-16.44-3.26-28.79-10.09-34.71-22.95-3.11-6.76-8.78-13.01-10.65-19.91-8.87-32.76-30.04-39.78-59.22-60.57-.51-.36-2.55-.35-2.81-1.52-.57-2.53,7-8.3,8.44-6.66.38.43.05,1.28.2,1.68,1.82,4.78-3.37-2.8,1.72,1.02,70.38,52.73,203.47,51.02,270.31-3.37"/>
    <path class="cls-12" d="m1671.7,455.04c-17.78,12.99-58.38,13.36-89.69.85,29.93.93,59.97,6.68,89.69-.85Z"/>
    <path class="cls-7" d="m1596.24,428.42c-9.43-.92-18.09-2.65-23.12-8.32-1.16-3.52-.06-6.41,3.78-9.41,22.2-17.29,64.16-19.83,87.47-8.8,2.91,2.49,5.42,5.01,6.69,8.09,4.17,10.1.29,15.02-15.89,17.15-19.42,2.55-39.14,3.54-58.94,1.3Z"/>
    <path class="cls-5" d="m1569.84,418.01c-10.59-14.55-21.85-28.95-28.04-45.82,18.67,1.86,33.29,8.44,50.7,9.7,7.82.57,1.92,4.51-.46,7.01-4.49,4.71-15.61,7.26-12.32,14.52,3.23,6.58-6.38,9.78-9.88,14.58Z"/>
    <path class="cls-12" d="m1679.31,403.89c.84-6.64-3.54-12.21-10.16-16.98-6.89-4.97-3.84-6.65,4.75-7.96,13.81-2.1,27.45-4.63,43.73-7.42-6.14,16.38-20.02,29.72-27.93,44.41-6.48-3.01-16.14-4.95-10.39-12.05Z"/>
    <path class="cls-2" d="m1679.31,403.89c3.46,4.02,6.92,8.03,10.39,12.05-1.36,1.39-2.72,2.77-4.08,4.16-8.09,1.2-10.91-1.52-12.97-5.93-2.07-4.43-6.22-8.35-12.96-10.83-32.97-11.38-65.32-5.11-86.56,16.76-1.09-.69-2.19-1.39-3.28-2.08.06-5.71,5.88-9.91,9.88-14.58,33.36-13.72,66.57-14.82,99.58.46Z"/>
    <path class="cls-11" d="m1659.69,403.34c13.53,2.65,18.81,10.26,25.93,16.76-6.34,7.19-18.07,8.77-29.25,9.96-20.09,2.14-40.33,2.32-60.13-1.64,16.29-.28,32.64-.11,48.53-2.98,22.78-4.11,26.02-8.87,14.92-22.1Z"/>
    <path class="cls-12" d="m1461.98,341.96c-1.82-1.08-2.09-4.19-.37-4.39,6.71-.78,17.58-4.12,22.82-17.2,2.1-5.24,2.77-10.72,2.83-15.38.03-2.31,2.63-2.1,3.5.29,5.49,14.9,3.89,29.89-3.9,36.83-6.19,5.51-15.65,5.35-24.89-.14Z"/>
    <path class="cls-12" d="m1757.02,313.57c1.01-1.86,4.1-2.26,4.37-.55,1.05,6.67,4.82,17.4,18.1,22.12,5.32,1.89,10.82,2.33,15.49,2.21,2.31-.06,2.2,2.54-.14,3.51-14.67,6.08-29.71,5.09-36.95-2.42-5.75-5.97-5.97-15.43-.86-24.87Z"/>
  </g>
</svg>